<svg xmlns="http://www.w3.org/2000/svg" xmlns:xlink="http://www.w3.org/1999/xlink" width="500" zoomAndPan="magnify" viewBox="0 0 375 374.999991" height="500" preserveAspectRatio="xMidYMid meet" version="1.0"><defs><g/></defs><rect x="-37.5" width="450" fill="#ffffff" y="-37.499999" height="449.999989" fill-opacity="1"/><rect x="-37.5" width="450" fill="#fffbf0" y="-37.499999" height="449.999989" fill-opacity="1"/><g fill="#e17055" fill-opacity="1"><g transform="translate(18.754684, 267.391934)"><g><path d="M 146.34375 -163.109375 C 149.550781 -163.109375 151.84375 -162.421875 153.21875 -161.046875 C 154.59375 -159.671875 155.28125 -157.378906 155.28125 -154.171875 L 155.28125 -96.1875 C 155.28125 -93.164062 154.019531 -90.96875 151.5 -89.59375 C 148.976562 -88.21875 145.109375 -87.53125 139.890625 -87.53125 C 134.847656 -87.53125 131.34375 -88.191406 129.375 -89.515625 C 127.40625 -90.847656 126.421875 -93.070312 126.421875 -96.1875 L 126.421875 -133.5625 L 101.546875 -133.5625 L 101.546875 -28.171875 L 131.234375 -28.171875 C 133.429688 -28.171875 135.125 -27.78125 136.3125 -27 C 137.5 -26.21875 138.390625 -24.816406 138.984375 -22.796875 C 139.585938 -20.785156 139.890625 -17.859375 139.890625 -14.015625 C 139.890625 -10.171875 139.585938 -7.238281 138.984375 -5.21875 C 138.390625 -3.207031 137.5 -1.832031 136.3125 -1.09375 C 135.125 -0.363281 133.429688 0 131.234375 0 L 37.515625 0 C 35.316406 0 33.617188 -0.363281 32.421875 -1.09375 C 31.234375 -1.832031 30.34375 -3.207031 29.75 -5.21875 C 29.15625 -7.238281 28.859375 -10.171875 28.859375 -14.015625 C 28.859375 -17.859375 29.15625 -20.785156 29.75 -22.796875 C 30.34375 -24.816406 31.234375 -26.21875 32.421875 -27 C 33.617188 -27.78125 35.316406 -28.171875 37.515625 -28.171875 L 67.1875 -28.171875 L 67.1875 -133.5625 L 42.328125 -133.5625 L 42.328125 -96.1875 C 42.328125 -93.164062 41.066406 -90.96875 38.546875 -89.59375 C 36.023438 -88.21875 32.15625 -87.53125 26.9375 -87.53125 C 21.894531 -87.53125 18.390625 -88.191406 16.421875 -89.515625 C 14.453125 -90.847656 13.46875 -93.070312 13.46875 -96.1875 L 13.46875 -154.171875 C 13.46875 -157.378906 14.175781 -159.671875 15.59375 -161.046875 C 17.007812 -162.421875 19.273438 -163.109375 22.390625 -163.109375 Z M 146.34375 -163.109375 "/></g></g><g transform="translate(187.493746, 267.391934)"><g><path d="M 153.21875 -163.109375 C 155.414062 -163.109375 157.109375 -162.71875 158.296875 -161.9375 C 159.492188 -161.15625 160.390625 -159.757812 160.984375 -157.75 C 161.578125 -155.738281 161.875 -152.804688 161.875 -148.953125 C 161.875 -145.109375 161.578125 -142.175781 160.984375 -140.15625 C 160.390625 -138.144531 159.492188 -136.769531 158.296875 -136.03125 C 157.109375 -135.300781 155.414062 -134.9375 153.21875 -134.9375 L 127.65625 -134.9375 L 127.65625 -49.875 C 127.65625 -32.289062 122.707031 -19.078125 112.8125 -10.234375 C 102.914062 -1.398438 88.394531 3.015625 69.25 3.015625 C 47.8125 3.015625 29.992188 -3.710938 15.796875 -17.171875 C 14.335938 -18.640625 13.609375 -20.929688 13.609375 -24.046875 L 13.609375 -68.5625 C 13.609375 -71.675781 15.003906 -73.894531 17.796875 -75.21875 C 20.585938 -76.550781 25.238281 -77.21875 31.75 -77.21875 C 36.050781 -77.21875 39.367188 -76.921875 41.703125 -76.328125 C 44.035156 -75.734375 45.660156 -74.835938 46.578125 -73.640625 C 47.492188 -72.453125 47.953125 -70.757812 47.953125 -68.5625 L 47.953125 -32.84375 C 54.273438 -29.726562 61.878906 -28.171875 70.765625 -28.171875 C 78.273438 -28.171875 83.90625 -30.160156 87.65625 -34.140625 C 91.414062 -38.128906 93.296875 -44.289062 93.296875 -52.625 L 93.296875 -134.9375 L 51.25 -134.9375 C 49.050781 -134.9375 47.359375 -135.300781 46.171875 -136.03125 C 44.984375 -136.769531 44.085938 -138.144531 43.484375 -140.15625 C 42.890625 -142.175781 42.59375 -145.109375 42.59375 -148.953125 C 42.59375 -152.804688 42.890625 -155.738281 43.484375 -157.75 C 44.085938 -159.757812 44.984375 -161.15625 46.171875 -161.9375 C 47.359375 -162.71875 49.050781 -163.109375 51.25 -163.109375 Z M 153.21875 -163.109375 "/></g></g></g></svg>